<svg width="14" height="16" viewBox="0 0 14 16" fill="none" xmlns="http://www.w3.org/2000/svg">
<g clip-path="url(#clip0_7_25)">
<path d="M7.00315 4.40626C5.01565 4.40626 3.41252 6.00938 3.41252 7.99688C3.41252 9.98438 5.01565 11.5875 7.00315 11.5875C8.99065 11.5875 10.5938 9.98438 10.5938 7.99688C10.5938 6.00938 8.99065 4.40626 7.00315 4.40626ZM7.00315 10.3313C5.71877 10.3313 4.66877 9.28438 4.66877 7.99688C4.66877 6.70938 5.71565 5.66251 7.00315 5.66251C8.29065 5.66251 9.33752 6.70938 9.33752 7.99688C9.33752 9.28438 8.28752 10.3313 7.00315 10.3313ZM11.5781 4.25938C11.5781 4.72501 11.2032 5.09688 10.7407 5.09688C10.275 5.09688 9.90315 4.72188 9.90315 4.25938C9.90315 3.79688 10.2782 3.42188 10.7407 3.42188C11.2032 3.42188 11.5781 3.79688 11.5781 4.25938ZM13.9563 5.10938C13.9031 3.98751 13.6469 2.99376 12.825 2.17501C12.0063 1.35626 11.0125 1.10001 9.89065 1.04376C8.7344 0.978131 5.26877 0.978131 4.11252 1.04376C2.99377 1.09688 2.00002 1.35313 1.17815 2.17188C0.356274 2.99063 0.103149 3.98438 0.0468994 5.10626C-0.0187256 6.26251 -0.0187256 9.72813 0.0468994 10.8844C0.100024 12.0063 0.356274 13 1.17815 13.8188C2.00002 14.6375 2.99065 14.8938 4.11252 14.95C5.26877 15.0156 8.7344 15.0156 9.89065 14.95C11.0125 14.8969 12.0063 14.6406 12.825 13.8188C13.6438 13 13.9 12.0063 13.9563 10.8844C14.0219 9.72813 14.0219 6.26563 13.9563 5.10938ZM12.4625 12.125C12.2188 12.7375 11.7469 13.2094 11.1313 13.4563C10.2094 13.8219 8.0219 13.7375 7.00315 13.7375C5.9844 13.7375 3.79377 13.8188 2.87502 13.4563C2.26252 13.2125 1.79065 12.7406 1.54377 12.125C1.17815 11.2031 1.26252 9.01563 1.26252 7.99688C1.26252 6.97813 1.18127 4.78751 1.54377 3.86876C1.78752 3.25626 2.2594 2.78438 2.87502 2.53751C3.7969 2.17188 5.9844 2.25626 7.00315 2.25626C8.0219 2.25626 10.2125 2.17501 11.1313 2.53751C11.7438 2.78126 12.2156 3.25313 12.4625 3.86876C12.8281 4.79063 12.7438 6.97813 12.7438 7.99688C12.7438 9.01563 12.8281 11.2063 12.4625 12.125Z" fill="white"/>
</g>
<defs>
<clipPath id="clip0_7_25">
<rect width="14" height="16" fill="white"/>
</clipPath>
</defs>
</svg>
